<svg width="173" height="40" viewBox="0 0 173 40" fill="none" xmlns="http://www.w3.org/2000/svg">
<path d="M23.1452 40V36.7677H36.8548V19.9596V3.15152H3.14516V36.7677H17.4194V14.303H8.70968V20.202H5V10.7475L11.5297 11.3875L17.4194 10.7475V5.09091H21.2903V25.0505L28.871 20.202H34.9193L21.2903 29.4141V40H0L0.8 20L0 0H40L38.88 20L40 40H23.1452Z" fill="white"/>
<path d="M30.242 34.9899H35.484L30.8533 30.9915L27.8227 27.3131L24.7582 29.5757L30.242 34.9899Z" fill="#F9E400"/>
<path d="M5.08069 5.01013L6.93553 5.17013L8.79037 5.01013L8.63037 6.86872L8.79037 8.7273L6.93553 8.5673L5.08069 8.7273L5.24069 6.86872L5.08069 5.01013Z" fill="#F9E400"/>
<path d="M169.567 13.68H172.239V26H169.567V13.68Z" fill="white"/>
<path d="M162.357 26.24C161.279 26.24 160.314 26.0427 159.461 25.648C158.618 25.2427 157.951 24.6773 157.461 23.952C156.981 23.2267 156.741 22.384 156.741 21.424C156.741 20.4747 156.97 19.6427 157.429 18.928C157.898 18.2133 158.538 17.6587 159.349 17.264C160.159 16.8587 161.082 16.656 162.117 16.656C163.173 16.656 164.079 16.8907 164.837 17.36C165.594 17.8187 166.175 18.4693 166.581 19.312C166.997 20.1547 167.205 21.1467 167.205 22.288H158.885V20.512H165.765L164.725 21.152C164.682 20.6187 164.549 20.1653 164.325 19.792C164.111 19.4187 163.818 19.1307 163.445 18.928C163.071 18.7253 162.634 18.624 162.133 18.624C161.589 18.624 161.114 18.736 160.709 18.96C160.314 19.1733 160.005 19.4773 159.781 19.872C159.567 20.256 159.461 20.7093 159.461 21.232C159.461 21.8613 159.599 22.4 159.877 22.848C160.154 23.296 160.559 23.6373 161.093 23.872C161.626 24.1067 162.271 24.224 163.029 24.224C163.711 24.224 164.399 24.128 165.093 23.936C165.786 23.7333 166.41 23.4507 166.965 23.088V24.88C166.367 25.3067 165.669 25.6427 164.869 25.888C164.079 26.1227 163.242 26.24 162.357 26.24Z" fill="white"/>
<path d="M143.639 13.68H146.311V19.792L145.943 20.512V22.496L146.311 23.232V26H143.639V13.68ZM145.367 21.456C145.538 20.4853 145.853 19.6427 146.311 18.928C146.77 18.2027 147.341 17.6427 148.023 17.248C148.706 16.8533 149.474 16.656 150.327 16.656C151.213 16.656 151.997 16.8587 152.679 17.264C153.362 17.6587 153.895 18.2187 154.279 18.944C154.663 19.6587 154.855 20.496 154.855 21.456C154.855 22.4053 154.663 23.2427 154.279 23.968C153.895 24.6827 153.362 25.2427 152.679 25.648C151.997 26.0427 151.213 26.24 150.327 26.24C149.474 26.24 148.706 26.0427 148.023 25.648C147.341 25.2533 146.77 24.6987 146.311 23.984C145.863 23.2587 145.549 22.416 145.367 21.456ZM152.135 21.456C152.135 20.9227 152.023 20.4533 151.799 20.048C151.586 19.632 151.287 19.312 150.903 19.088C150.519 18.8533 150.082 18.736 149.591 18.736C149.09 18.736 148.615 18.8533 148.167 19.088C147.719 19.312 147.325 19.632 146.983 20.048C146.653 20.4533 146.391 20.9227 146.199 21.456C146.391 21.9893 146.653 22.4587 146.983 22.864C147.325 23.2693 147.719 23.5893 148.167 23.824C148.615 24.048 149.09 24.16 149.591 24.16C150.082 24.16 150.519 24.048 150.903 23.824C151.287 23.5893 151.586 23.2693 151.799 22.864C152.023 22.4587 152.135 21.9893 152.135 21.456Z" fill="white"/>
<path d="M138.285 26L137.901 22.672L138.333 21.456L137.901 20.256L138.285 16.896H141.053L140.525 21.456L141.053 26H138.285ZM138.989 21.456C138.818 22.416 138.503 23.2587 138.045 23.984C137.597 24.6987 137.026 25.2533 136.333 25.648C135.65 26.0427 134.882 26.24 134.029 26.24C133.143 26.24 132.359 26.0427 131.677 25.648C130.994 25.2427 130.461 24.6827 130.077 23.968C129.703 23.2427 129.517 22.4053 129.517 21.456C129.517 20.496 129.703 19.6587 130.077 18.944C130.461 18.2187 130.994 17.6587 131.677 17.264C132.359 16.8587 133.143 16.656 134.029 16.656C134.882 16.656 135.65 16.8533 136.333 17.248C137.026 17.6427 137.602 18.2027 138.061 18.928C138.519 19.6427 138.829 20.4853 138.989 21.456ZM132.221 21.456C132.221 21.9893 132.327 22.4587 132.541 22.864C132.765 23.2693 133.069 23.5893 133.453 23.824C133.837 24.048 134.279 24.16 134.781 24.16C135.282 24.16 135.751 24.048 136.189 23.824C136.637 23.5893 137.031 23.2693 137.373 22.864C137.714 22.4587 137.981 21.9893 138.173 21.456C137.981 20.9227 137.714 20.4533 137.373 20.048C137.031 19.632 136.637 19.312 136.189 19.088C135.751 18.8533 135.282 18.736 134.781 18.736C134.279 18.736 133.837 18.8533 133.453 19.088C133.069 19.312 132.765 19.632 132.541 20.048C132.327 20.4533 132.221 20.9227 132.221 21.456Z" fill="white"/>
<path d="M116.404 26V14H119.108V23.792L118.34 23.248L125.764 14H128.66L118.852 26H116.404ZM122.132 20.128L124.084 18.384L128.836 26H125.732L122.132 20.128Z" fill="white"/>
<path d="M105.186 18.912V17.728L107.09 17.104L108.226 14.496H109.762V16.896H113.794V18.912H109.762V22.224C109.762 22.928 109.906 23.424 110.194 23.712C110.493 23.9893 111.005 24.128 111.73 24.128C112.189 24.128 112.594 24.0853 112.946 24C113.298 23.9147 113.634 23.792 113.954 23.632V25.712C113.645 25.84 113.234 25.9573 112.722 26.064C112.21 26.1813 111.682 26.24 111.138 26.24C110.189 26.24 109.416 26.0907 108.818 25.792C108.232 25.4827 107.794 25.056 107.506 24.512C107.229 23.968 107.09 23.3333 107.09 22.608V18.912H105.186Z" fill="#F9E400"/>
<path d="M100.76 26L100.376 22.672L100.808 21.456L100.376 20.256L100.76 16.896H103.528L103 21.456L103.528 26H100.76ZM101.464 21.456C101.293 22.416 100.978 23.2587 100.52 23.984C100.072 24.6987 99.501 25.2533 98.8077 25.648C98.125 26.0427 97.357 26.24 96.5037 26.24C95.6184 26.24 94.8344 26.0427 94.1517 25.648C93.469 25.2427 92.9357 24.6827 92.5517 23.968C92.1784 23.2427 91.9917 22.4053 91.9917 21.456C91.9917 20.496 92.1784 19.6587 92.5517 18.944C92.9357 18.2187 93.469 17.6587 94.1517 17.264C94.8344 16.8587 95.6184 16.656 96.5037 16.656C97.357 16.656 98.125 16.8533 98.8077 17.248C99.501 17.6427 100.077 18.2027 100.536 18.928C100.994 19.6427 101.304 20.4853 101.464 21.456ZM94.6957 21.456C94.6957 21.9893 94.8024 22.4587 95.0157 22.864C95.2397 23.2693 95.5437 23.5893 95.9277 23.824C96.3117 24.048 96.7544 24.16 97.2557 24.16C97.757 24.16 98.2264 24.048 98.6637 23.824C99.1117 23.5893 99.5064 23.2693 99.8477 22.864C100.189 22.4587 100.456 21.9893 100.648 21.456C100.456 20.9227 100.189 20.4533 99.8477 20.048C99.5064 19.632 99.1117 19.312 98.6637 19.088C98.2264 18.8533 97.757 18.736 97.2557 18.736C96.7544 18.736 96.3117 18.8533 95.9277 19.088C95.5437 19.312 95.2397 19.632 95.0157 20.048C94.8024 20.4533 94.6957 20.9227 94.6957 21.456Z" fill="#F9E400"/>
<path d="M82.7309 28.88C82.1336 28.88 81.5949 28.8053 81.1149 28.656C80.6349 28.5067 80.1816 28.288 79.7549 28V26.08C80.2029 26.368 80.6296 26.576 81.0349 26.704C81.4402 26.832 81.8882 26.896 82.3789 26.896C82.8162 26.896 83.2056 26.7947 83.5469 26.592C83.8882 26.4 84.1709 26.0533 84.3949 25.552L88.1869 16.896H91.0189L86.4749 26.416C86.1976 27.0133 85.8616 27.4933 85.4669 27.856C85.0722 28.2187 84.6402 28.48 84.1709 28.64C83.7122 28.8 83.2322 28.88 82.7309 28.88ZM83.3069 25.424L79.2909 16.896H82.2349L85.9149 25.424H83.3069Z" fill="#F9E400"/>
<path d="M74.8004 26L74.4163 22.672L74.8484 21.456L74.4163 20.256L74.8004 16.896H77.5683L77.0403 21.456L77.5683 26H74.8004ZM75.5043 21.456C75.3337 22.416 75.019 23.2587 74.5603 23.984C74.1123 24.6987 73.5417 25.2533 72.8484 25.648C72.1657 26.0427 71.3977 26.24 70.5443 26.24C69.659 26.24 68.875 26.0427 68.1923 25.648C67.5097 25.2427 66.9764 24.6827 66.5924 23.968C66.219 23.2427 66.0323 22.4053 66.0323 21.456C66.0323 20.496 66.219 19.6587 66.5924 18.944C66.9764 18.2187 67.5097 17.6587 68.1923 17.264C68.875 16.8587 69.659 16.656 70.5443 16.656C71.3977 16.656 72.1657 16.8533 72.8484 17.248C73.5417 17.6427 74.1177 18.2027 74.5764 18.928C75.035 19.6427 75.3443 20.4853 75.5043 21.456ZM68.7363 21.456C68.7363 21.9893 68.843 22.4587 69.0563 22.864C69.2803 23.2693 69.5843 23.5893 69.9683 23.824C70.3523 24.048 70.795 24.16 71.2963 24.16C71.7977 24.16 72.267 24.048 72.7043 23.824C73.1523 23.5893 73.547 23.2693 73.8883 22.864C74.2297 22.4587 74.4964 21.9893 74.6884 21.456C74.4964 20.9227 74.2297 20.4533 73.8883 20.048C73.547 19.632 73.1523 19.312 72.7043 19.088C72.267 18.8533 71.7977 18.736 71.2963 18.736C70.795 18.736 70.3523 18.8533 69.9683 19.088C69.5843 19.312 69.2803 19.632 69.0563 20.048C68.843 20.4533 68.7363 20.9227 68.7363 21.456Z" fill="#F9E400"/>
<path d="M51.2321 14H53.9521V26H51.2321V14ZM60.8321 14H63.5521V26H60.8321V14ZM52.7201 18.736H62.0321V21.12H52.7201V18.736Z" fill="#F9E400"/>
</svg>
