<svg width="250" height="250" viewBox="0 0 250 250" fill="none" xmlns="http://www.w3.org/2000/svg">
<path d="M144.657 250V229.798H230.343V124.747V19.697H19.6573V229.798H108.871V89.3939H54.4355V126.263H31.25V67.1717L72.0605 71.1717L108.871 67.1717V31.8182H133.065V156.566L180.444 126.263H218.246L133.065 183.838V250H0L5 125L0 0H250L243 125L250 250H144.657Z" fill="white"/>
<path d="M189.012 218.687H221.774L192.833 193.697L173.891 170.707L154.738 184.848L189.012 218.687Z" fill="#F9E400"/>
<path d="M31.7541 31.3132L43.3468 32.3132L54.9396 31.3132L53.9396 42.9294L54.9396 54.5456L43.3468 53.5456L31.7541 54.5456L32.7541 42.9294L31.7541 31.3132Z" fill="#F9E400"/>
</svg>
